<svg xmlns="http://www.w3.org/2000/svg" viewBox="0 0 80.1 16"><defs><style>.a{fill:#5ab552;}.b,.c{fill:#fff;}.b{fill-rule:evenodd;}</style></defs><path class="a" d="M12.7,5.2l.8-2.3a5.3,5.3,0,0,0-1.3-1.3A5.8,5.8,0,0,0,9.7.4,3.5,3.5,0,0,0,8.3.1H5.7l1.8,2L6.7,4.3h.7a4.9,4.9,0,0,1,2.6,1l.3.2Z" transform="translate(0 0)"/><path class="a" d="M4.4,1.8l-.9.5,1.2.4V3.9h.1a4.9,4.9,0,0,1,1.9-.7l.4-.9-.8-.9Z" transform="translate(0 0)"/><path class="a" d="M4.4,2.9,3.2,2.5a3.1,3.1,0,0,0-1.1.9,5.6,5.6,0,0,0-1.4,2l1.4-.3.8,1V5.9A6.5,6.5,0,0,1,4.5,4.1Z" transform="translate(0 0)"/><path class="a" d="M11,10.5l.4-.6,1.3,1.5,2.1-.4-.4,1a9.6,9.6,0,0,1-1.8,2.2,7.7,7.7,0,0,1-2.5,1.4H10L8.4,14.3l.5-1.9h0A4.3,4.3,0,0,0,11,10.5Z" transform="translate(0 0)"/><path class="a" d="M14.1,3.8l-.3-.6-.9,2.3-2.4.3a3.5,3.5,0,0,1,1,1.9,5.4,5.4,0,0,1,0,1.8l1.3,1.6,2.1-.5a3.1,3.1,0,0,0,.3-1.3,7.1,7.1,0,0,0,0-2.9A8.5,8.5,0,0,0,14.1,3.8Z" transform="translate(0 0)"/><path class="a" d="M.5,5.7l1.4-.3.9,1a4.5,4.5,0,0,0-.2,2.3c0,.2.1.4.1.6L1.3,9,.2,10.2A8.8,8.8,0,0,1,0,8.5,9.2,9.2,0,0,1,.5,5.7Z" transform="translate(0 0)"/><path class="a" d="M3.8,11.2a7.8,7.8,0,0,1-1-1.5L1.4,9.3.3,10.6l.2.8a7.8,7.8,0,0,0,1.6,2.4l1.3,1.1v-2l1.4-.8A2.8,2.8,0,0,1,3.8,11.2Z" transform="translate(0 0)"/><path class="a" d="M5.1,12.3a4.5,4.5,0,0,0,1.1.3,3.6,3.6,0,0,0,2.3-.1l-.4,1.9,1.6,1.3a10.1,10.1,0,0,1-2.5.3,6.3,6.3,0,0,1-2.7-.6L3.8,15V13.1Z" transform="translate(0 0)"/><path class="b" d="M54.9,6.8a7.9,7.9,0,0,1-1.6,4.8,2.6,2.6,0,0,1-1.7.7c-1.7,0-2-1.7-2-2.6A7.3,7.3,0,0,1,51.3,5,2.4,2.4,0,0,1,53,4.3C54.7,4.3,54.9,5.9,54.9,6.8Zm-2.6-1c-.8.7-1.2,2.9-1.2,4.1s.1,1.1.7,1.1l.5-.2c.7-.8,1.1-3.3,1.1-4.1s-.1-1.1-.6-1.1Z" transform="translate(0 0)"/><path class="c" d="M41.9,10.7A2,2,0,0,0,43,11a1,1,0,0,0,1.1-1c0-.5-.3-.8-.8-1.3a2.6,2.6,0,0,1-.9-1.9,2.4,2.4,0,0,1,2.5-2.5,2.5,2.5,0,0,1,1.2.3l-.4,1.2-.8-.2a1,1,0,0,0-1.1,1c0,.4.2.7.8,1.2a2.8,2.8,0,0,1,.9,1.9A2.4,2.4,0,0,1,43,12.3a3.4,3.4,0,0,1-1.5-.3Z" transform="translate(0 0)"/><path class="c" d="M21.5,8.8H19.8l-.4,2.1h2l-.3,1.3H17.7l1.5-7.8h3.3l-.3,1.3H20.4L20,7.5h1.8Z" transform="translate(0 0)"/><path class="c" d="M22.8,12.2l-.2-7.8h1.6V8.3c0,.8-.1,1.7-.1,2.3h0c.2-.6.4-1.6.7-2.3l1.4-3.9h1.6l-3.3,7.8Z" transform="translate(0 0)"/><path class="c" d="M28.6,8.8h1.7l.3-1.3H28.8l.4-1.8H31l.2-1.3H28l-1.5,7.8h3.4l.2-1.3H28.2Z" transform="translate(0 0)"/><path class="c" d="M30.6,12.2l1.5-7.8h1.4l.6,3.1a12.9,12.9,0,0,1,.3,2.4h.1V9.4h0c.1-.8.3-1.9.5-3l.3-2h1.3l-1.5,7.8H33.9l-.7-2.9c-.2-1.1-.3-1.6-.4-2.6h0c-.1.8-.3,2.1-.5,3.4l-.4,2.1Z" transform="translate(0 0)"/><path class="c" d="M36.6,5.8H38l-1.3,6.4h1.5l1.2-6.4h1.4L41,4.4H36.9Z" transform="translate(0 0)"/><path class="c" d="M46.2,5.8h1.3l-1.2,6.4h1.4L49,5.8h1.3l.3-1.4H46.4Z" transform="translate(0 0)"/><path class="b" d="M57.7,4.4H56.1l-1.4,7.7h1.4l.6-3.1h.2c.5,0,.7.3.7,1.2a8.2,8.2,0,0,0,.1,1.9h1.4a10.4,10.4,0,0,1-.1-2h0c0-.9-.2-1.3-.7-1.5h0a2.4,2.4,0,0,0,1.6-2.3,1.9,1.9,0,0,0-.5-1.3A2.3,2.3,0,0,0,57.7,4.4ZM57.2,8h-.3l.4-2.5h.4c.6,0,.7.4.7.9S58,8,57.2,8Z" transform="translate(0 0)"/><path class="c" d="M63.5,8.8H61.7l-.4,2.1h2L63,12.2H59.6l1.5-7.8h3.3l-.3,1.3H62.3l-.4,1.8h1.8Z" transform="translate(0 0)"/><path class="b" d="M64.7,11.3v.6h.2v-.2H65c.1,0,.1,0,.1.1h.2a.1.1,0,0,0-.1-.1h.1c0-.1,0-.2-.1-.2h-.5Zm.3.1h-.1v-.2Z" transform="translate(0 0)"/><path class="b" d="M65,12.2c.2,0,.3,0,.4-.2a.5.5,0,0,0,0-.8L65,11l-.4.2a.5.5,0,0,0,0,.8Zm-.5-.6v-.3l.4-.2.4.2v.3a.8.8,0,0,1-.2.4h-.6A.8.8,0,0,1,64.5,11.6Z" transform="translate(0 0)"/><path class="a" d="M73.2,8.7l-3.5,3.5c0,.1-.1.1-.3.1h-.3l-.4-.4a.5.5,0,0,1,0-.6l2.8-2.8L68.7,5.6c-.1,0-.1-.1-.1-.3a.4.4,0,0,1,.1-.3l.4-.4h.6l3.5,3.5.2.3ZM80.1,12l-.2.3h-6a.4.4,0,0,1-.1-.3v-.6a.4.4,0,0,1,.1-.3h6l.2.3Z" transform="translate(0 0)"/></svg>