<svg xmlns="http://www.w3.org/2000/svg" viewBox="0 0 432.5 86.4"><defs><style>.a{fill:#5ab552;}.b,.c{fill:#435261;}.b{fill-rule:evenodd;}</style></defs><path class="a" d="M68.3,28.2l4.8-12.5a40.9,40.9,0,0,0-7-6.8,42.9,42.9,0,0,0-13.8-7C49.9,1.3,47.4.8,45,.4L39.7,0a65.3,65.3,0,0,0-8.8.3l9.8,11.1L36.2,23a20.6,20.6,0,0,1,3.5.2,28.2,28.2,0,0,1,14.5,5.6,5.2,5.2,0,0,1,1.1,1Z"/><path class="a" d="M23.8,9.9A35.8,35.8,0,0,0,19,12.3l6.2,2.4.7,6.2.7-.4a35,35,0,0,1,10.3-4l1.9-4.7L34.7,7.1A38.1,38.1,0,0,0,23.8,9.9Z"/><path class="a" d="M23.6,15.9l-6.4-2.5a45.9,45.9,0,0,0-6,4.9A37.3,37.3,0,0,0,3.8,29l7.4-1.6,4.5,5.5.5-1A26.1,26.1,0,0,1,24.3,22Z"/><path class="a" d="M59.6,56.8a19.5,19.5,0,0,0,1.7-3.6l7,8.5L80,59.1a37.6,37.6,0,0,1-2.3,5.5,43.1,43.1,0,0,1-9.6,12.1,37,37,0,0,1-13.6,7.5h-.3L45.6,77l2.2-10H48A23.9,23.9,0,0,0,59.6,56.8Z"/><path class="a" d="M76.3,20.4a32.8,32.8,0,0,0-2-3.1L69.6,29.8,56.9,31.3a20,20,0,0,1,5.3,10.3,21.1,21.1,0,0,1-.2,9.7l7,8.5,11.7-2.5a62,62,0,0,0,1.6-7.2,46.1,46.1,0,0,0-.4-15.3A45,45,0,0,0,76.3,20.4Z"/><path class="a" d="M3,30.9l7.5-1.6L15,34.7a25.2,25.2,0,0,0-1.1,12.2c.2,1.2.5,2.3.8,3.5L6.8,48.6,1,55.3a39.9,39.9,0,0,1-1-9.2A41.4,41.4,0,0,1,2.9,31,.1.1,0,0,1,3,30.9Z"/><path class="a" d="M20.4,60.6a25.7,25.7,0,0,1-5-8.4l-8-1.8L1.5,57.3c.4,1.4.9,2.7,1.4,4.1a38.6,38.6,0,0,0,8.5,12.9,34.4,34.4,0,0,0,7.2,5.9l-.5-10.3L26,65.3A24.6,24.6,0,0,1,20.4,60.6Z"/><path class="a" d="M27.8,66.3a24.7,24.7,0,0,0,5.4,1.9,22.8,22.8,0,0,0,12.7-.5l-2.2,9.9,8.6,7.3a44.9,44.9,0,0,1-13.2,1.4A39.4,39.4,0,0,1,24,83a25.3,25.3,0,0,1-3.7-1.8l-.4-10.4Z"/><path class="b" d="M296.3,36.6c0,9-3,20.2-8.5,25.8a13,13,0,0,1-9.4,4c-9.1,0-10.4-9.1-10.4-13.8,0-8.5,2.9-19.8,8.8-25.5a12.9,12.9,0,0,1,9.2-3.9C295.2,23.2,296.3,31.6,296.3,36.6Zm-14.2-5.2c-3.8,4-6,15.7-6,22,0,2.4.3,6.1,3.5,6.1a3.7,3.7,0,0,0,2.6-1.2c4.2-4.2,6-17.8,6-22.3,0-2.7-.4-5.9-3.2-5.9A4.1,4.1,0,0,0,282.1,31.4Z"/><path class="c" d="M226.2,57.9a12.1,12.1,0,0,0,5.8,1.4c3.6.2,6.1-2,6.1-5.4s-1.6-4.4-4.2-7-5-6.5-5-10.2c0-7.9,5.5-13.4,13.7-13.4,3.3,0,5.4.7,6.4,1.4l-2.2,6.7a8.6,8.6,0,0,0-4.5-1.1c-3.4,0-5.6,2.1-5.7,5.4s.8,3.5,4.2,6.5,5.1,6.8,5.1,10.2c0,8.7-5.8,13.9-13.8,13.9-4.2,0-6.9-1-7.9-1.6Z"/><path class="c" d="M116.3,47.2H107L104.7,59h10.7L114,65.9H95.6l8.1-42.2h17.6l-1.4,6.9h-9.7l-2,10h9.4Z"/><path class="c" d="M123.3,65.9,122,23.7h8.7l-.6,21.4c-.1,3.8-.4,8.7-.6,11.9h.1c.9-3.2,2.3-8.2,3.6-11.9l7.6-21.4h8.7L131.8,65.9Z"/><path class="c" d="M154.4,47.2h9.3l1.3-6.6h-9.4l2-10h9.7l1.4-6.9H151.1L143,65.9h18.4l1.4-6.9H152.1Z"/><path class="c" d="M165.4,65.9l8.1-42.2h7.1l3.3,16.8c1,5.6,1.7,9.6,2,13.1h.2l.3-2.6h0c.5-4.5,1.2-10.5,2.3-16.3l2.1-11h6.7l-8,42.2h-6.7l-3.4-15.7a98.2,98.2,0,0,1-2.2-14h-.1c-.5,4.2-1.5,11.2-2.9,18.5l-2.1,11.2Z"/><path class="c" d="M197.6,31.1h7.3l-6.6,34.8h7.8l6.6-34.8H220l1.5-7.4H199Z"/><path class="c" d="M249.2,31.1h7.3l-6.6,34.8h7.8l6.7-34.8h7.3l1.4-7.4H250.6Z"/><path class="b" d="M311.5,23.5a46,46,0,0,0-8.4.8l-8,41.6h7.7L305.9,49h1.3c2.6,0,3.7,1.7,3.7,6.8s.1,8.9.3,10.1h7.9c-.4-1.5-.5-6.4-.7-11v-.5c-.1-4.6-1.1-7.1-3.4-8.2h0a13.3,13.3,0,0,0,8.6-12.7,9.7,9.7,0,0,0-2.8-7C318.6,24.2,315.1,23.5,311.5,23.5ZM309,42.9h-1.8l2.4-13.1h2.1c2.9,0,3.8,2.3,3.8,4.6C315.5,38.7,312.9,42.9,309,42.9Z"/><path class="c" d="M342.5,47.2h-9.2L331,59h10.6l-1.4,6.9H321.8l8.1-42.2h17.7l-1.4,6.9h-9.7l-2.1,10h9.5Z"/><path class="b" d="M349.5,60.9v3.6h.9V63.2h.8a.2.2,0,0,1,.2.2,2,2,0,0,1,.1.5v.5h.9v-.5a1.1,1.1,0,0,0-.3-.8l-.6-.2.7-.2a1.4,1.4,0,0,0,.2-.7c0-.4-.1-.7-.5-.8l-.7-.2h-1.7Zm1.2.6h.5c.2.1.3.2.3.4a.5.5,0,0,1-.2.4h-.9v-1Z"/><path class="b" d="M350.9,65.9a3.3,3.3,0,0,0,2.3-.9,3.4,3.4,0,0,0,0-4.6,2.9,2.9,0,0,0-2.3-1,3.1,3.1,0,0,0-2.2.9,3,3,0,0,0-1,2.4,3.3,3.3,0,0,0,.9,2.3A3.2,3.2,0,0,0,350.9,65.9Zm-2.7-3.2a2.6,2.6,0,0,1,.8-1.9,2.7,2.7,0,0,1,3.8,0,2.6,2.6,0,0,1,.8,1.9,2.9,2.9,0,0,1-.8,1.9,2.7,2.7,0,0,1-3.8,0A2.9,2.9,0,0,1,348.2,62.7Z"/><path class="a" d="M431.8,58.8a2.5,2.5,0,0,0-1.7-.6H400.8a2.5,2.5,0,0,0-1.7.6,2.6,2.6,0,0,0-.7,1.7v3.1a2.4,2.4,0,0,0,.7,1.6,2.2,2.2,0,0,0,1.7.7h29.3a2.2,2.2,0,0,0,1.7-.7,2.4,2.4,0,0,0,.7-1.6V60.5A2.6,2.6,0,0,0,431.8,58.8Z"/><path class="a" d="M370.5,61.4a2.2,2.2,0,0,0,.7,1.7l2.2,2.1a2.6,2.6,0,0,0,1.7.7,2.4,2.4,0,0,0,1.6-.7l18.7-18.8a1.9,1.9,0,0,0,.7-1.6,2,2,0,0,0-.7-1.6L376.7,24.4a2.4,2.4,0,0,0-1.6-.7,2.6,2.6,0,0,0-1.7.7l-2.2,2.1a2.2,2.2,0,0,0-.7,1.7,2,2,0,0,0,.7,1.6l14.9,15-14.9,15A2,2,0,0,0,370.5,61.4Z"/></svg>