<svg height="512" viewBox="0 0 512 512" width="512" xmlns="http://www.w3.org/2000/svg" xmlns:xlink="http://www.w3.org/1999/xlink"><clipPath id="a"><path d="m60.107 0h451.893v512h-451.893z"/></clipPath><linearGradient id="b" gradientTransform="matrix(.866 -.5 .5 .866 -94.066 162.491)" gradientUnits="userSpaceOnUse" x1="354.532" x2="354.532" y1="610.634" y2="233.288"><stop offset="0" stop-color="#6ba300"/><stop offset="1" stop-color="#8dd900"/></linearGradient><linearGradient id="c" gradientTransform="matrix(.866 -.5 .5 .866 -94.066 162.491)" gradientUnits="userSpaceOnUse" x1="354.529" x2="354.529" y1="610.635" y2="453.192"><stop offset="0" stop-color="#8cd700" stop-opacity="0"/><stop offset="1" stop-color="#8cd700"/></linearGradient><linearGradient id="d"><stop offset="0" stop-opacity="0"/><stop offset="1"/></linearGradient><linearGradient id="e" gradientTransform="matrix(.866 -.5 .5 .866 -94.066 162.491)" gradientUnits="userSpaceOnUse" x1="352.015" x2="387.598" xlink:href="#d" y1="201.285" y2="201.285"/><linearGradient id="f" gradientTransform="matrix(.866 -.5 .5 .866 -94.066 162.491)" gradientUnits="userSpaceOnUse" x1="416.607" x2="434.829" xlink:href="#d" y1="217.03" y2="217.03"/><linearGradient id="g" gradientTransform="matrix(.866 -.5 .5 .866 -94.066 162.491)" gradientUnits="userSpaceOnUse" x1="290.655" x2="308.876" xlink:href="#d" y1="217.029" y2="217.029"/><linearGradient id="h"><stop offset="0"/><stop offset="1" stop-opacity="0"/></linearGradient><linearGradient id="i" gradientTransform="matrix(.866 -.5 .5 .866 -94.066 162.491)" gradientUnits="userSpaceOnUse" x1="543.461" x2="543.461" xlink:href="#h" y1="420.753" y2="291.02"/><linearGradient id="j" gradientTransform="matrix(.866 -.5 .5 .866 -94.066 162.491)" gradientUnits="userSpaceOnUse" x1="165.612" x2="165.6" xlink:href="#h" y1="422.322" y2="289.398"/><linearGradient id="k" gradientTransform="matrix(.866 -.5 .5 .866 -94.066 162.491)" gradientUnits="userSpaceOnUse" x1="543.79" x2="543.79" xlink:href="#h" y1="578.371" y2="484.116"/><g clip-path="url(#a)" clip-rule="evenodd"><path d="m247.54 234.038c-15.053 8.69-20.217 27.96-11.525 43.013l157.44 272.692c8.69 15.055 27.96 20.217 43.012 11.525l163.613-94.463c15.055-8.69 20.217-27.958 11.525-43.013l-157.44-272.692c-8.69-15.053-27.957-20.217-43.012-11.526z" fill="url(#b)" fill-rule="evenodd"/><path d="m444.338 574.903.314.545c4.49 7.103 13.848 9.457 21.19 5.215.186-.105.366-.21.546-.314l26.726-15.43.543-.315c6.925-4.385 9.356-13.4 5.535-20.645l-.316-.545-7.872-13.636-13.634 7.87-27.27 15.745-13.633 7.872 7.87 13.636zm109.076-62.976c.107.182.21.363.316.545 4.49 7.103 13.846 9.457 21.193 5.215l.543-.314 26.726-15.43.545-.314c6.92-4.386 9.352-13.398 5.53-20.646l-.315-.545-7.872-13.637-13.632 7.872-27.27 15.744-13.635 7.87 7.87 13.637z" fill="#6ba300" fill-rule="evenodd"/><path d="m299.222 131.48c13.18-7.61 58.76 38.795 58.76 38.795l-54.54 31.488s-18.09-62.275-4.22-70.283zm-38.794 58.757c6.6-3.81 29.378 19.398 29.378 19.398l-27.27 15.744c.002-.002-9.035-31.145-2.108-35.143zm109.078-62.977c6.597-3.81 29.376 19.4 29.376 19.4l-27.27 15.743s-9.035-31.142-2.106-35.142z" fill="#ced900" fill-rule="evenodd"/><path d="m516.645 259.275s-46.93-81.205-46.926-81.28c-.108-42.673 10.315-78.53 33.387-91.51 42.018-23.654 110.066 70.108 102.67 87.613-4.858 11.483-35.706-20.618-41.618-10.876-7.21 11.87 26.866 43.85 20.515 56.776-6.154 12.52-39.743-19.037-45.64-7.97-5.09 9.577 24.546 47.684 17.29 61.06-5.806 10.722-39.68-13.813-39.68-13.813zm-218.187 125.972s-46.86-81.246-46.928-81.28c-36.902-21.43-73.164-30.33-95.943-16.84-41.494 24.563 5.683 130.375 24.54 132.722 12.374 1.534-.002-41.232 11.39-41.483 13.883-.305 24.56 45.184 38.913 46.155 13.917.933 3.383-43.935 15.916-43.51 10.838.382 29.022 45.1 44.236 45.504 12.187.333 7.876-41.27 7.876-41.27zm265.128-44.627c77.424 20.744 80.855-51.237 105.033-59.743 24.174-8.504 16.518 98.643-57.802 141.55-.017.01-47.232-81.807-47.232-81.807z" fill="#6ba300" fill-rule="evenodd"/><path d="m420.103 532.927 8.563 14.832c4.315 7.473 13.907 9.98 21.432 5.634l136.35-78.72c7.522-4.343 10.148-13.904 5.833-21.378l-8.564-14.832c-30.133-52.194-98.988-86.856-144.163-60.774s-49.584 103.043-19.45 155.237z" fill="url(#c)" fill-rule="evenodd"/><path d="m420.103 532.927.62 1.07 163.612-94.463-.62-1.07c-5.036-8.727-11.147-16.957-18.067-24.497l-157.726 91.063c3.07 9.765 7.143 19.17 12.18 27.897z" fill="#fff" fill-rule="evenodd" opacity=".25"/><path d="m540.65 392.04c-10.495-7.347-21.737-13.216-33.14-17.224l-104.425 60.288c-2.23 11.88-2.768 24.553-1.652 37.312z" fill="#fff" fill-rule="evenodd" opacity=".35"/><path d="m368.33 397.577c-6.938 2.212-22.928-25.52-22.928-25.52l28.708-9.182s1.5 32.365-5.78 34.702z" fill="#fff" fill-rule="evenodd"/><path d="m491.988 326.183c5.387-4.903-10.64-32.616-10.64-32.616l-22.303 20.27s27.28 17.483 32.943 12.346z" fill="#fff" fill-rule="evenodd"/><path d="m326.26 370.384c49.162 3.706 143.994-52.037 163.612-94.464" style="fill:none;stroke:#000;stroke-width:3;stroke-linecap:round;stroke-linejoin:round;stroke-miterlimit:10"/><g fill-rule="evenodd"><path d="m408.373 304.794c-3.473-6.018-3.86-12.314-.843-14.057 3.02-1.743 8.278 1.74 11.753 7.76 3.473 6.017 3.862 12.313.842 14.056-3.017 1.742-8.277-1.74-11.752-7.76z"/><path d="m383.833 318.963c-3.475-6.018-3.862-12.314-.845-14.057 3.02-1.743 8.278 1.74 11.753 7.76 3.473 6.017 3.863 12.313.843 14.056-3.017 1.743-8.275-1.74-11.75-7.76z"/><path d="m392.363 264.468c-11.86-20.543-19.003-48.534-3.95-57.225 15.053-8.69 46.63 5.195 58.49 25.737 11.85 20.525 9.248 44.23-5.804 52.92-15.056 8.692-36.886-.908-48.737-21.432z" fill="#fff"/><path d="m365.094 280.21c-11.86-20.542-32.53-40.724-47.58-32.034-15.055 8.69-18.82 42.98-6.958 63.523 11.85 20.524 33.68 30.124 48.734 21.433 15.054-8.69 17.655-32.397 5.804-52.922z" fill="#fff"/><path d="m398.603 259.532c-6.517-11.29-2.645-25.742 8.647-32.26 11.287-6.518 25.74-2.646 32.26 8.644 6.518 11.29 2.644 25.742-8.644 32.26-11.292 6.518-25.744 2.646-32.263-8.644z"/><path d="m316.797 306.764c-6.517-11.29-2.645-25.742 8.645-32.26s25.742-2.646 32.26 8.644c6.517 11.29 2.645 25.742-8.645 32.26s-25.74 2.645-32.26-8.644z"/><path d="m339.847 285.264c-4.147-1.096-6.886-4.41-6.088-7.393.79-2.953 4.82-4.456 8.968-3.36 4.14 1.124 6.878 4.44 6.086 7.394-.8 2.982-4.83 4.484-8.967 3.36z" fill="#fff"/><path d="m421.653 238.032c-4.145-1.097-6.886-4.41-6.086-7.393.79-2.955 4.82-4.458 8.97-3.36 4.136 1.124 6.877 4.438 6.085 7.392-.8 2.983-4.83 4.484-8.97 3.36z" fill="#fff"/><path d="m444.338 574.903.314.545c4.49 7.103 13.848 9.457 21.19 5.215.186-.105.366-.21.546-.314l26.726-15.43.543-.315c6.925-4.385 9.356-13.4 5.535-20.645l-.316-.545-7.872-13.636-13.634 7.87-27.27 15.745-13.633 7.872 7.87 13.636zm109.076-62.976c.107.182.21.363.316.545 4.49 7.103 13.846 9.457 21.193 5.215l.543-.314 26.726-15.43.545-.314c6.92-4.386 9.352-13.398 5.53-20.646l-.315-.545-7.872-13.637-13.632 7.872-27.27 15.744-13.635 7.87 7.87 13.637z" opacity=".1"/><path d="m299.222 131.48c-1.18.682-2.15 1.776-2.884 3.192 15.623 1.404 48.006 43.475 48.006 43.475l13.637-7.872s-45.58-46.404-58.758-38.795z" fill="url(#e)" opacity=".15"/><path d="m369.506 127.26c-.73.42-1.27 1.12-1.675 2.06 7.873 1.537 22.873 22.062 22.873 22.062l8.18-4.723s-22.78-23.21-29.377-19.4z" fill="url(#f)" opacity=".15"/><path d="m260.428 190.237c-.728.42-1.27 1.12-1.673 2.057 7.87 1.54 22.872 22.064 22.872 22.064l8.18-4.723s-22.78-23.208-29.38-19.398z" fill="url(#g)" opacity=".15"/><path d="m516.645 259.275s33.874 24.535 39.682 13.814c7.255-13.378-22.38-51.485-17.292-61.063 5.898-11.066 39.487 20.492 45.64 7.97 6.352-12.925-27.723-44.906-20.515-56.775 5.912-9.742 36.76 22.36 41.62 10.876 3.752-8.907-12.006-37.548-33.94-60.42 16.145 19.984 14.13 35.35 11.01 42.75-4.858 11.484-23.377-15.008-29.29-5.266-7.207 11.87 14.54 38.24 8.188 51.168-6.154 12.52-27.414-13.428-33.314-2.363-5.086 9.578 12.222 42.077 4.965 55.453-4.277 7.874-11.393 2.31-21.4-4.152l4.645 8.007z" fill="url(#i)" opacity=".15"/><path d="m298.474 385.236s4.313 41.6-7.893 41.28c-15.195-.414-33.38-45.132-44.235-45.505-12.515-.434-1.978 44.434-15.898 43.502-14.372-.96-25.05-46.45-38.93-46.145-11.376.242 1.002 43.004-11.374 41.47-9.608-1.19-26.53-29.16-35.372-59.59 9.253 23.964 23.568 29.903 31.536 30.9 12.376 1.534-1.31-27.75 10.067-27.987 13.88-.308 25.865 31.7 40.237 32.662 13.92.933 2.075-30.455 14.59-30.02 10.86.373 30.348 31.613 45.542 32.027 8.977.22 7.714-8.722 7.105-20.612l4.627 8.018z" fill="url(#j)" opacity=".15"/><path d="m594.95 394.94 15.868 27.49c74.32-42.91 81.977-150.057 57.8-141.552-.645.23-1.297.53-1.934.85 16.783 29.068-29.254 94.43-71.735 113.21z" fill="url(#k)" opacity=".15"/></g></g></svg>