<svg width="855" height="189" viewBox="0 0 855 189" fill="none" xmlns="http://www.w3.org/2000/svg">
<g clip-path="url(#clip0_6115_7827)">
<path d="M1.15479 187.841L1.15478 0.000183105L16.8082 25.437L16.8082 162.404L1.15479 187.841Z" fill="#631B3A"/>
<path d="M25.8613 187.841L25.8613 0.000183105L41.5147 35.2204L41.5148 152.621L25.8613 187.841Z" fill="#631B3A"/>
<path d="M50.5669 187.841L50.5669 0.000183105L66.2203 45.0038L66.2203 142.838L50.5669 187.841Z" fill="#631B3A"/>
<path d="M75.2734 187.841L75.2734 0.000183105L90.9269 54.7872L90.9269 133.054L75.2734 187.841Z" fill="#631B3A"/>
<path d="M99.979 187.841L99.979 0.000183105L115.632 64.5706L115.632 123.271L99.979 187.841Z" fill="#631B3A"/>
<path d="M124.686 187.841L124.686 0.000183105L140.339 74.354L140.339 113.488L124.686 187.841Z" fill="#631B3A"/>
<path d="M149.391 187.841L149.391 0.000183105L165.044 84.1374L165.044 103.704L149.391 187.841Z" fill="#631B3A"/>
<path d="M174.098 187.841L174.098 0.000183105L189.751 93.9207L174.098 187.841Z" fill="#631B3A"/>
</g>
<path d="M399.178 164.347V152.664C395.512 157.572 391.291 161.238 386.513 163.659C381.8 166.016 376.401 167.194 370.314 167.194C356.765 167.194 346.359 163.038 339.094 154.725C331.829 146.413 328.196 134.468 328.196 118.891V56.3526H353.624V104.852C353.624 119.447 355.293 129.429 358.631 134.796C361.969 140.162 367.728 142.846 375.91 142.846C384.287 142.846 390.276 139.835 393.876 133.814C397.541 127.792 399.374 117.582 399.374 103.183V56.3526H424.114V164.347H399.178Z" fill="#631B3A"/>
<path d="M496.568 78.246C486.816 79.0314 480.009 81.5839 476.148 85.9037C472.286 90.2235 470.355 98.0121 470.355 109.27V164.347H445.222V56.3526H468.785V68.821C472.581 63.9777 476.737 60.4433 481.253 58.218C485.769 55.9272 490.874 54.7818 496.568 54.7818V78.246Z" fill="#631B3A"/>
<path d="M560.776 78.246C551.024 79.0314 544.217 81.5839 540.355 85.9037C536.494 90.2235 534.563 98.0121 534.563 109.27V164.347H509.43V56.3526H532.992V68.821C536.788 63.9777 540.944 60.4433 545.46 58.218C549.976 55.9272 555.082 54.7818 560.776 54.7818V78.246Z" fill="#631B3A"/>
<path d="M650.018 98.3721C647.858 91.1725 644.226 85.7074 639.121 81.9767C634.081 78.1805 627.699 76.2824 619.976 76.2824C613.3 76.2824 607.311 78.3114 602.01 82.3694C596.708 86.4273 593.141 91.7616 591.309 98.3721H650.018ZM590.425 118.302C591.276 126.091 594.352 132.243 599.654 136.759C605.021 141.21 611.926 143.435 620.369 143.435C625.998 143.435 631.037 142.257 635.488 139.901C640.004 137.544 643.571 134.239 646.189 129.985H673.286C668.704 141.766 661.832 150.929 652.669 157.474C643.571 163.954 633.034 167.194 621.056 167.194C613.006 167.194 605.577 165.787 598.77 162.972C592.029 160.092 585.974 155.871 580.607 150.307C575.502 145.006 571.542 138.886 568.728 131.948C565.914 124.945 564.506 117.778 564.506 110.448C564.506 102.921 565.783 95.8522 568.335 89.2417C570.953 82.5657 574.782 76.577 579.822 71.2754C585.32 65.4503 591.538 60.9669 598.476 57.8253C605.413 54.6836 612.58 53.1128 619.976 53.1128C629.336 53.1128 638.073 55.24 646.189 59.4943C654.305 63.7486 661.21 69.7373 666.904 77.4605C670.373 82.1076 672.926 87.3109 674.562 93.0706C676.264 98.8303 677.115 105.441 677.115 112.902C677.115 113.491 677.082 114.408 677.017 115.651C676.951 116.829 676.918 117.713 676.918 118.302H590.425Z" fill="#631B3A"/>
<path d="M717.465 56.3526V68.6247C721.13 63.7159 725.319 60.0833 730.032 57.7271C734.81 55.3709 740.242 54.1928 746.329 54.1928C754.118 54.1928 760.892 55.6654 766.652 58.6107C772.477 61.556 777.32 65.9739 781.182 71.8645C783.669 75.7915 785.436 80.2749 786.483 85.3146C787.596 90.2889 788.152 97.5867 788.152 107.208V164.347H763.019V116.535C763.019 102.07 761.35 92.1543 758.012 86.7873C754.674 81.4203 748.914 78.7368 740.733 78.7368C732.355 78.7368 726.334 81.7148 722.669 87.6709C719.003 93.5615 717.171 103.706 717.171 118.106V164.347H692.921V56.3526H717.465Z" fill="#631B3A"/>
<path d="M805.731 164.347V78.7368V56.3526V21.4019H830.864V56.3526H855V78.7368H823.031L830.864 89.8048V164.347H805.731Z" fill="#631B3A"/>
<rect x="226.315" y="21.4019" width="24.1402" height="143.333" fill="#631B3A"/>
<path d="M281.988 108.079L319.058 56.4036H292.051L268.484 89.2644L254.981 108.079L268.484 126.893L295.401 164.401H322.407L281.988 108.079Z" fill="#631B3A"/>
<defs>
<clipPath id="clip0_6115_7827">
<rect width="188.596" height="190.104" fill="white" transform="translate(0 188.595) rotate(-90)"/>
</clipPath>
</defs>
</svg>
