<svg xmlns="http://www.w3.org/2000/svg" width="71" height="100" xml:space="preserve"><path fill="#6BA300" d="M70 7.583H56.625V5.961c0-.55-.45-1-1-1H43.443V2c0-1.1-.9-2-2-2H29.557c-1.1 0-2 .9-2 2v2.961H15.375c-.55 0-1 .45-1 1v1.623H1c-.55 0-1 .45-1 1V99c0 .55.45 1 1 1h69c.55 0 1-.45 1-1V8.583c0-.549-.45-1-1-1zM35.5 2.319a1.98 1.98 0 1 1 0 3.962 1.98 1.98 0 0 1 0-3.962zm27.995 90.076c0 .55-.45 1-1 1H8.505c-.55 0-1-.45-1-1V15.188c0-.55.45-1 1-1h5.87v1.669c0 .55.45 1 1 1h40.25c.55 0 1-.45 1-1v-1.669h5.87c.55 0 1 .45 1 1v77.207z"/></svg>