<svg xmlns="http://www.w3.org/2000/svg" width="71" height="100" viewBox="0 0 71 100"><path fill="#A2A4A0" d="M70 7.583H56.625V5.96c0-.55-.45-1-1-1H43.443V2c0-1.1-.9-2-2-2H29.557c-1.1 0-2 .9-2 2v2.96H15.375c-.55 0-1 .45-1 1v1.624H1c-.55 0-1 .45-1 1V99c0 .55.45 1 1 1h69c.55 0 1-.45 1-1V8.583c0-.55-.45-1-1-1zM35.5 2.32c1.094 0 1.98.886 1.98 1.98 0 1.093-.887 1.98-1.98 1.98-1.094 0-1.98-.887-1.98-1.98 0-1.094.886-1.98 1.98-1.98zm27.995 90.075c0 .55-.45 1-1 1H8.505c-.55 0-1-.45-1-1V15.188c0-.55.45-1 1-1h5.87v1.67c0 .55.45 1 1 1h40.25c.55 0 1-.45 1-1v-1.67h5.87c.55 0 1 .45 1 1v77.207z"/></svg>