<svg xmlns="http://www.w3.org/2000/svg" width="119" height="29" viewBox="307.241 -360.305 119 29" xml:space="preserve"><path fill="#FFF" d="m315.753-355.375-2.093-.809a13.24 13.24 0 0 1 1.617-.806 12.68 12.68 0 0 1 3.667-.916l1.364 1.553-.623 1.597a10.91 10.91 0 0 0-3.704 1.484l-.228-2.103zm-3.201 6.124c.053-.12.107-.24.166-.359a8.86 8.86 0 0 1 2.739-3.301l-.227-2.062-2.164-.838a12.915 12.915 0 0 0-2.015 1.662 12.54 12.54 0 0 0-2.492 3.577l2.482-.523 1.511 1.844zm15.332 6.812a7.614 7.614 0 0 1-.577 1.195c-.93 1.565-2.23 2.704-3.899 3.412l-.058.024-.763 3.356 2.914 2.465.101-.032a12.755 12.755 0 0 0 4.559-2.549 13.624 13.624 0 0 0 3.199-4.06 15.27 15.27 0 0 0 .8-1.821l-3.932.848-2.344-2.838zm5.026-11.033a13.932 13.932 0 0 0-.679-1.033l-1.584 4.204-4.243.503c.899.952 1.485 2.101 1.761 3.447.232 1.135.208 2.226-.073 3.272l2.355 2.849 3.926-.845c.246-.786.428-1.592.545-2.419.244-1.72.196-3.433-.145-5.138a15.235 15.235 0 0 0-1.863-4.84zm-20.674 10.079c-.112-.379-.2-.77-.265-1.172a8.231 8.231 0 0 1 .344-4.085l-1.494-1.824-2.536.534-.019.048a13.714 13.714 0 0 0-.975 5.073c-.002 1.051.112 2.08.343 3.087l1.924-2.273 2.678.612zm3.801 5.02a8.177 8.177 0 0 1-1.891-1.593 9.03 9.03 0 0 1-1.7-2.799l-2.677-.612-1.962 2.316c.13.458.285.911.463 1.36a13.209 13.209 0 0 0 2.834 4.358 13.065 13.065 0 0 0 2.417 1.955l-.144-3.464 2.66-1.521zm6.679.801a7.832 7.832 0 0 1-4.265.17 8.321 8.321 0 0 1-1.835-.651l-2.658 1.521.144 3.487a13.938 13.938 0 0 0 6.319 1.731 15.198 15.198 0 0 0 4.426-.485l-2.886-2.44.755-3.333zm-3.274-14.993a9.44 9.44 0 0 1 6.429 2.258l4.365-.517 1.588-4.214a13.565 13.565 0 0 0-2.348-2.293 13.629 13.629 0 0 0-4.642-2.326 16.997 16.997 0 0 0-4.199-.637c-.984-.03-1.97-.002-2.957.083l3.285 3.741-1.521 3.905zm93.597 7.745v.043c.777.357 1.113 1.177 1.156 2.753s.084 3.32.231 3.845h-2.648c-.063-.4-.105-1.828-.105-3.383 0-1.723-.358-2.291-1.24-2.291h-.441l-1.051 5.674h-2.564l2.669-13.974c.882-.148 1.87-.253 2.817-.253 1.218 0 2.395.232 3.131.967.588.588.925 1.408.925 2.333-.002 2.08-1.262 3.739-2.88 4.286zm.189-3.972c0-.756-.315-1.556-1.303-1.556-.273 0-.524.022-.693.063l-.819 4.392h.61c1.322.001 2.205-1.407 2.205-2.899zM339.38-338.18h6.179l.462-2.332h-3.572l.777-3.929h3.11l.442-2.228h-3.174l.694-3.362h3.257l.462-2.311h-5.926l-2.711 14.162zm75.957 0h6.178l.462-2.332h-3.572l.777-3.929h3.11l.441-2.228h-3.174l.694-3.362h3.257l.462-2.311h-5.925l-2.71 14.162zm-60.771-14.163-2.542 7.166c-.442 1.261-.925 2.921-1.219 4.013h-.042c.083-1.093.169-2.731.21-4.013l.189-7.166h-2.921l.441 14.163h2.858l5.926-14.163h-2.9zm28.658 11.473zm.904-7.123c0 1.24.567 2.374 1.681 3.425.882.882 1.408 1.429 1.408 2.374 0 1.114-.841 1.849-2.038 1.807-.756 0-1.492-.21-1.954-.483l-.672 2.29c.336.21 1.24.525 2.648.525 2.69 0 4.644-1.723 4.644-4.665 0-1.135-.546-2.374-1.701-3.405-1.135-1.009-1.408-1.534-1.408-2.206.021-1.093.777-1.807 1.892-1.807.651 0 1.113.148 1.534.379l.715-2.269c-.336-.21-1.03-.441-2.124-.441-2.776 0-4.625 1.849-4.625 4.476zm14.856-4.35h-7.544l-.484 2.48h2.459l-2.228 11.684h2.627l2.227-11.684h2.459l.484-2.48zm7.777 4.328c0 3.005-.987 6.787-2.857 8.658-.882.882-1.891 1.345-3.132 1.345-3.067 0-3.509-3.067-3.509-4.623 0-2.879.988-6.661 2.943-8.574.841-.819 1.871-1.303 3.11-1.303 3.066.001 3.445 2.817 3.445 4.497zm-2.711-.21c0-.903-.126-1.975-1.093-1.975-.336 0-.651.148-.945.441-1.303 1.324-2.038 5.274-2.038 7.376 0 .798.105 2.059 1.198 2.059.294 0 .61-.147.862-.42 1.406-1.387 2.016-5.946 2.016-7.481zm-43.84-1.807h3.257l.462-2.311h-5.926l-2.712 14.163h6.179l.463-2.332h-3.572l.778-3.929h3.11l.441-2.228h-3.174l.694-3.363zm10.432 1.367c-.441 2.354-.693 4.791-.882 6.346h-.043c-.105-1.177-.336-2.522-.693-4.392l-1.093-5.632h-2.395l-2.712 14.163h2.249l.715-3.761c.463-2.459.778-4.791.968-6.22h.042c.147 1.766.273 2.731.715 4.707l1.135 5.274h2.249l2.711-14.163h-2.269l-.697 3.678zm2.979-1.199h2.459l-2.228 11.684h2.627l2.228-11.684h2.459l.484-2.48h-7.544l-.485 2.48zm51.981 11.167.011.034h-.301a.831.831 0 0 1-.02-.167.578.578 0 0 0-.02-.148.147.147 0 0 0-.088-.088.322.322 0 0 0-.108-.019l-.069-.005h-.066v.426h-.315v-1.207l.336.001.249.002a.597.597 0 0 1 .238.062c.107.059.161.155.161.288 0 .101-.029.174-.085.219a.397.397 0 0 1-.209.081.427.427 0 0 1 .172.069c.07.057.106.148.106.271v.108l.003.036.005.037zm-.306-.797c0-.065-.033-.112-.098-.138a.522.522 0 0 0-.183-.025h-.076v.35h.123a.301.301 0 0 0 .173-.044c.041-.03.061-.077.061-.143zm.566 1.007a1.057 1.057 0 0 1-.761.307c-.306 0-.564-.105-.773-.314a1.055 1.055 0 0 1-.314-.773c0-.318.113-.582.34-.793.212-.196.462-.295.749-.295.3 0 .556.106.769.319.212.212.319.469.319.769a1.061 1.061 0 0 1-.329.78zm-.129-.14a.882.882 0 0 0 .263-.64.872.872 0 0 0-.262-.631.855.855 0 0 0-.635-.272c-.25 0-.463.09-.638.272a.873.873 0 0 0-.26.631.87.87 0 0 0 .265.642.863.863 0 0 0 .635.264c.246 0 .457-.09.632-.266z"/></svg>