<?xml version="1.0" encoding="utf-8"?>
<!DOCTYPE svg PUBLIC "-//W3C//DTD SVG 1.1//EN" "http://www.w3.org/Graphics/SVG/1.1/DTD/svg11.dtd">
<svg version="1.1" xmlns="http://www.w3.org/2000/svg" xmlns:xlink="http://www.w3.org/1999/xlink" x="0px" y="0px"
	 width="119px" height="29px" viewBox="307.241 -360.305 119 29" enable-background="new 307.241 -360.305 119 29"
	 xml:space="preserve">
<path fill="#FFF" d="M315.753-355.375l-2.093-0.809c0.516-0.303,1.055-0.572,1.617-0.806c1.186-0.491,2.408-0.796,3.667-0.916
	l1.364,1.553l-0.623,1.597c-1.228,0.246-2.384,0.692-3.469,1.339c-0.079,0.047-0.158,0.095-0.235,0.145L315.753-355.375z
	 M312.552-349.251c0.053-0.12,0.107-0.24,0.166-0.359c0.654-1.338,1.567-2.439,2.739-3.301l-0.227-2.062l-2.164-0.838
	c-0.721,0.48-1.392,1.034-2.015,1.662c-1.043,1.053-1.875,2.245-2.492,3.577l2.482-0.523L312.552-349.251z M327.884-342.439
	c-0.153,0.405-0.345,0.804-0.577,1.195c-0.93,1.565-2.23,2.704-3.899,3.412l-0.058,0.024l-0.763,3.356l2.914,2.465l0.101-0.032
	c1.694-0.534,3.213-1.384,4.559-2.549c1.325-1.148,2.39-2.501,3.199-4.06c0.308-0.594,0.575-1.201,0.8-1.821l-3.932,0.848
	L327.884-342.439z M332.91-353.472c-0.213-0.356-0.438-0.701-0.679-1.033l-1.584,4.204l-4.243,0.503
	c0.899,0.952,1.485,2.101,1.761,3.447c0.232,1.135,0.208,2.226-0.073,3.272l2.355,2.849l3.926-0.845
	c0.246-0.786,0.428-1.592,0.545-2.419c0.244-1.72,0.196-3.433-0.145-5.138C334.429-350.351,333.808-351.964,332.91-353.472z
	 M312.236-343.393c-0.112-0.379-0.2-0.77-0.265-1.172c-0.228-1.414-0.113-2.776,0.344-4.085l-1.494-1.824l-2.536,0.534l-0.019,0.048
	c-0.646,1.63-0.972,3.321-0.975,5.073c-0.002,1.051,0.112,2.08,0.343,3.087l1.924-2.273L312.236-343.393z M316.037-338.373
	c-0.694-0.421-1.326-0.953-1.891-1.593c-0.749-0.849-1.316-1.782-1.7-2.799l-2.677-0.612l-1.962,2.316
	c0.13,0.458,0.285,0.911,0.463,1.36c0.656,1.641,1.601,3.093,2.834,4.358c0.736,0.754,1.541,1.406,2.417,1.955l-0.144-3.464
	L316.037-338.373z M322.716-337.572c-1.385,0.45-2.807,0.508-4.265,0.17c-0.65-0.15-1.263-0.367-1.835-0.651l-2.658,1.521
	l0.144,3.487c0.405,0.225,0.823,0.429,1.257,0.614c1.618,0.689,3.304,1.061,5.062,1.117c1.506,0.055,2.982-0.107,4.426-0.485
	l-2.886-2.44L322.716-337.572z M319.442-352.565c0.389-0.015,0.786-0.003,1.194,0.036c1.8,0.184,3.413,0.819,4.838,1.901
	c0.137,0.104,0.269,0.211,0.397,0.321l4.365-0.517l1.588-4.214c-0.683-0.853-1.465-1.616-2.348-2.293
	c-1.398-1.073-2.946-1.848-4.642-2.326c-0.802-0.227-1.614-0.394-2.435-0.501c-0.583-0.075-1.171-0.121-1.764-0.136
	c-0.984-0.03-1.97-0.002-2.957,0.083l3.285,3.741L319.442-352.565z M413.039-344.82v0.043c0.777,0.357,1.113,1.177,1.156,2.753
	s0.084,3.32,0.231,3.845h-2.648c-0.063-0.4-0.105-1.828-0.105-3.383c0-1.723-0.358-2.291-1.24-2.291h-0.441l-1.051,5.674h-2.564
	l2.669-13.974c0.882-0.148,1.87-0.253,2.817-0.253c1.218,0,2.395,0.232,3.131,0.967c0.588,0.588,0.925,1.408,0.925,2.333
	C415.917-347.026,414.657-345.367,413.039-344.82z M413.228-348.792c0-0.756-0.315-1.556-1.303-1.556
	c-0.273,0-0.524,0.022-0.693,0.063l-0.819,4.392h0.61C412.345-345.892,413.228-347.3,413.228-348.792z M339.38-338.18h6.179
	l0.462-2.332h-3.572l0.777-3.929h3.11l0.442-2.228h-3.174l0.694-3.362h3.257l0.462-2.311h-5.926L339.38-338.18z M415.337-338.18
	h6.178l0.462-2.332h-3.572l0.777-3.929h3.11l0.441-2.228h-3.174l0.694-3.362h3.257l0.462-2.311h-5.925L415.337-338.18z
	 M354.566-352.343l-2.542,7.166c-0.442,1.261-0.925,2.921-1.219,4.013h-0.042c0.083-1.093,0.169-2.731,0.21-4.013l0.189-7.166
	h-2.921l0.441,14.163l0,0h2.858l5.926-14.163H354.566z M383.224-340.87L383.224-340.87L383.224-340.87L383.224-340.87z
	 M384.128-347.993c0,1.24,0.567,2.374,1.681,3.425c0.882,0.882,1.408,1.429,1.408,2.374c0,1.114-0.841,1.849-2.038,1.807
	c-0.756,0-1.492-0.21-1.954-0.483l-0.672,2.29c0.336,0.21,1.24,0.525,2.648,0.525c2.69,0,4.644-1.723,4.644-4.665
	c0-1.135-0.546-2.374-1.701-3.405c-1.135-1.009-1.408-1.534-1.408-2.206c0.021-1.093,0.777-1.807,1.892-1.807
	c0.651,0,1.113,0.148,1.534,0.379l0.715-2.269c-0.336-0.21-1.03-0.441-2.124-0.441C385.977-352.469,384.128-350.62,384.128-347.993z
	 M398.984-352.343h-7.544l-0.484,2.48h2.459l-2.228,11.684h2.627l2.227-11.684h2.459L398.984-352.343z M406.761-348.015
	c0,3.005-0.987,6.787-2.857,8.658c-0.882,0.882-1.891,1.345-3.132,1.345c-3.067,0-3.509-3.067-3.509-4.623
	c0-2.879,0.988-6.661,2.943-8.574c0.841-0.819,1.871-1.303,3.11-1.303C406.382-352.511,406.761-349.695,406.761-348.015
	L406.761-348.015z M404.05-348.225c0-0.903-0.126-1.975-1.093-1.975c-0.336,0-0.651,0.148-0.945,0.441
	c-1.303,1.324-2.038,5.274-2.038,7.376c0,0.798,0.105,2.059,1.198,2.059c0.294,0,0.61-0.147,0.862-0.42
	C403.44-342.131,404.05-346.69,404.05-348.225z M360.21-350.032h3.257l0.462-2.311h-5.926l-2.712,14.163h6.179l0.463-2.332h-3.572
	l0.778-3.929h3.11l0.441-2.228h-3.174L360.21-350.032z M370.642-348.665c-0.441,2.354-0.693,4.791-0.882,6.346h-0.043
	c-0.105-1.177-0.336-2.522-0.693-4.392l-1.093-5.632h-2.395l-2.712,14.163l0,0h2.249l0.715-3.761
	c0.463-2.459,0.778-4.791,0.968-6.22h0.042c0.147,1.766,0.273,2.731,0.715,4.707l1.135,5.274h2.249l2.711-14.163h-2.269
	L370.642-348.665z M373.621-349.864h2.459l-2.228,11.684h2.627l2.228-11.684h2.459l0.484-2.48h-7.544L373.621-349.864z
	 M425.602-338.697l0.011,0.034h-0.301c-0.01-0.038-0.017-0.094-0.02-0.167c-0.004-0.073-0.01-0.122-0.02-0.148
	c-0.016-0.043-0.046-0.071-0.088-0.088c-0.024-0.01-0.059-0.017-0.108-0.019l-0.069-0.005h-0.066v0.426h-0.315l0,0v-1.207
	l0.336,0.001c0.15,0.001,0.232,0.001,0.249,0.002c0.095,0.007,0.174,0.028,0.238,0.062c0.107,0.059,0.161,0.155,0.161,0.288
	c0,0.101-0.029,0.174-0.085,0.219c-0.057,0.045-0.126,0.072-0.209,0.081c0.076,0.016,0.133,0.039,0.172,0.069
	c0.07,0.057,0.106,0.148,0.106,0.271v0.108l0.003,0.036L425.602-338.697z M425.296-339.494c0-0.065-0.033-0.112-0.098-0.138
	c-0.044-0.017-0.104-0.025-0.183-0.025h-0.076v0.35h0.123c0.073,0,0.131-0.015,0.173-0.044
	C425.276-339.381,425.296-339.428,425.296-339.494z M425.862-338.487L425.862-338.487c-0.211,0.204-0.465,0.307-0.761,0.307
	c-0.306,0-0.564-0.105-0.773-0.314c-0.209-0.21-0.314-0.468-0.314-0.773c0-0.318,0.113-0.582,0.34-0.793
	c0.212-0.196,0.462-0.295,0.749-0.295c0.3,0,0.556,0.106,0.769,0.319c0.212,0.212,0.319,0.469,0.319,0.769
	C426.188-338.959,426.079-338.698,425.862-338.487z M425.733-338.627c0.175-0.178,0.263-0.392,0.263-0.64
	c0-0.242-0.087-0.452-0.262-0.631c-0.176-0.181-0.388-0.272-0.635-0.272c-0.25,0-0.463,0.09-0.638,0.272
	c-0.173,0.177-0.26,0.388-0.26,0.631c0,0.252,0.088,0.466,0.265,0.642c0.175,0.176,0.387,0.264,0.635,0.264
	C425.347-338.361,425.558-338.451,425.733-338.627z"/>
</svg>
