<svg width="855" height="189" fill="none" xmlns="http://www.w3.org/2000/svg"><g clip-path="url(#a)" fill="#fff"><path d="M1.155 187.841V.001l15.653 25.436v136.967L1.155 187.841Zm24.706 0V.001l15.654 35.22v117.4l-15.654 35.22Zm24.706 0V.001L66.22 45.003v97.834L50.567 187.84Zm24.706 0V.001l15.654 54.786v78.267l-15.654 54.787Zm24.706 0V.001l15.653 64.57v58.7l-15.653 64.57Zm24.707 0V.001l15.653 74.353v39.134l-15.653 74.353Zm24.705 0V.001l15.653 84.136v19.567l-15.653 84.137Zm24.707 0V.001l15.653 93.92-15.653 93.92Z"/></g><path d="M399.178 164.347v-11.683c-3.666 4.908-7.887 8.574-12.665 10.995-4.713 2.357-10.112 3.535-16.199 3.535-13.549 0-23.955-4.156-31.22-12.469-7.265-8.312-10.898-20.257-10.898-35.834V56.353h25.428v48.499c0 14.595 1.669 24.577 5.007 29.944 3.338 5.366 9.097 8.05 17.279 8.05 8.377 0 14.366-3.011 17.966-9.032 3.665-6.022 5.498-16.232 5.498-30.631v-46.83h24.74v107.994h-24.936Zm97.39-86.101c-9.752.785-16.559 3.338-20.42 7.658-3.862 4.32-5.793 12.108-5.793 23.366v55.077h-25.133V56.353h23.563V68.82c3.796-4.843 7.952-8.378 12.468-10.603 4.516-2.29 9.621-3.436 15.315-3.436v23.464Zm64.208 0c-9.752.785-16.559 3.338-20.421 7.658-3.861 4.32-5.792 12.108-5.792 23.366v55.077H509.43V56.353h23.562V68.82c3.796-4.843 7.952-8.378 12.468-10.603 4.516-2.29 9.622-3.436 15.316-3.436v23.464Zm89.242 20.126c-2.16-7.2-5.792-12.665-10.897-16.395-5.04-3.797-11.422-5.695-19.145-5.695-6.676 0-12.665 2.03-17.966 6.087-5.302 4.058-8.869 9.393-10.701 16.003h58.709Zm-59.593 19.93c.851 7.789 3.927 13.941 9.229 18.457 5.367 4.451 12.272 6.676 20.715 6.676 5.629 0 10.668-1.178 15.119-3.534 4.516-2.357 8.083-5.662 10.701-9.916h27.097c-4.582 11.781-11.454 20.944-20.617 27.489-9.098 6.48-19.635 9.72-31.613 9.72-8.05 0-15.479-1.407-22.286-4.222-6.741-2.88-12.796-7.101-18.163-12.665-5.105-5.301-9.065-11.421-11.879-18.359-2.814-7.003-4.222-14.17-4.222-21.5 0-7.527 1.277-14.596 3.829-21.206 2.618-6.676 6.447-12.665 11.487-17.967 5.498-5.825 11.716-10.308 18.654-13.45 6.937-3.141 14.104-4.712 21.5-4.712 9.36 0 18.097 2.127 26.213 6.381 8.116 4.255 15.021 10.243 20.715 17.966 3.469 4.648 6.022 9.85 7.658 15.61 1.702 5.76 2.553 12.371 2.553 19.832 0 .589-.033 1.506-.098 2.749a51.866 51.866 0 0 0-.099 2.651h-86.493Zm127.04-61.949v12.272c3.665-4.91 7.854-8.542 12.567-10.898 4.778-2.356 10.21-3.534 16.297-3.534 7.789 0 14.563 1.472 20.323 4.418 5.825 2.945 10.668 7.363 14.53 13.254 2.487 3.927 4.254 8.41 5.301 13.45 1.113 4.974 1.669 12.272 1.669 21.893v57.139h-25.133v-47.812c0-14.465-1.669-24.38-5.007-29.748-3.338-5.367-9.098-8.05-17.279-8.05-8.378 0-14.399 2.978-18.064 8.934-3.666 5.89-5.498 16.035-5.498 30.435v46.241h-24.25V56.353h24.544Zm88.266 107.994V21.402h25.133v34.95H855v22.385h-31.969l7.833 11.068v74.542h-25.133ZM226.315 21.402h24.14v143.333h-24.14zm55.673 86.677 37.07-51.675h-27.007l-23.567 32.86-13.503 18.815 13.503 18.814 26.917 37.508h27.006l-40.419-56.322Z" fill="#fff"/><defs><clipPath id="a"><path fill="#fff" transform="rotate(-90 94.298 94.297)" d="M0 0h188.596v190.104H0z"/></clipPath></defs></svg>